<svg xmlns="http://www.w3.org/2000/svg" width="113" height="35" viewBox="0 0 113 35"><g><g><g/><g><path fill="#ff385c" d="M32.144 24.715c.48 1.214.58 2.544.286 3.815a7.385 7.385 0 0 1-2.51 4.555 7.501 7.501 0 0 1-4.91 1.8 9.27 9.27 0 0 1-4.419-1.253c-1.396-.807-2.803-1.962-4.342-3.63-1.539 1.668-2.913 2.823-4.342 3.619a9.262 9.262 0 0 1-3.495 1.2 7.532 7.532 0 0 1-3.799-.496 7.468 7.468 0 0 1-3.052-2.297 7.355 7.355 0 0 1-1.064-7.269 20.8 20.8 0 0 1 .528-1.254c.275-.632.56-1.22.802-1.787l.066-.066C4.312 16.42 6.94 11.1 9.632 5.868l.11-.218c.286-.512.56-1.068.835-1.635.352-.622.737-1.286 1.253-1.919a5.818 5.818 0 0 1 2.014-1.56 5.867 5.867 0 0 1 4.987 0 5.82 5.82 0 0 1 2.013 1.56c.56.633.901 1.297 1.253 1.919.286.523.56 1.09.836 1.602l.11.218c2.737 5.233 5.32 10.552 7.738 15.784l.033.033.814 1.82c.175.382.34.829.516 1.254zM19.888 20.05c.176-.774.22-1.505.11-2.137-.066-.556-.275-1.035-.56-1.471a3.618 3.618 0 0 0-1.346-1.148 3.652 3.652 0 0 0-1.733-.378c-1.264 0-2.418.588-3.078 1.537a3.376 3.376 0 0 0-.571 1.46c-.1.713-.063 1.438.11 2.137.417 1.886 1.649 4.088 3.54 6.486 1.879-2.41 3.11-4.633 3.528-6.486zm10.267 5.374c-.11-.36-.286-.698-.462-1.123-.275-.545-.517-1.177-.803-1.744l-.033-.033a430.449 430.449 0 0 0-7.694-15.708l-.11-.218c-.286-.512-.56-1.079-.835-1.602-.286-.556-.605-1.09-.99-1.526a3.675 3.675 0 0 0-5.595 0c-.396.436-.703.97-.99 1.526-.285.523-.56 1.079-.835 1.602l-.11.218a355.402 355.402 0 0 0-7.661 15.708l-.044.077c-.275.588-.56 1.177-.802 1.744-.176.414-.341.763-.451 1.111-.352.982-.429 1.854-.319 2.726a5.18 5.18 0 0 0 2.004 3.41 5.265 5.265 0 0 0 3.844 1.026 6.955 6.955 0 0 0 2.66-.905 15.717 15.717 0 0 0 3.99-3.4c-2.275-2.824-3.704-5.44-4.232-7.74a7.117 7.117 0 0 1-.176-2.976c.12-.864.44-1.688.935-2.409 1.099-1.537 2.913-2.474 4.946-2.474a5.933 5.933 0 0 1 2.78.632c.861.433 1.601 1.07 2.156 1.853.485.722.808 1.54.945 2.398.11.905.077 1.886-.176 2.976-.527 2.3-1.923 4.883-4.232 7.718a17.156 17.156 0 0 0 3.99 3.379c.902.523 1.781.807 2.66.916.902.098 1.825 0 2.66-.35a5.228 5.228 0 0 0 2.144-1.622c.56-.717.92-1.567 1.044-2.465.11-.872 0-1.744-.208-2.725zm15.51.872a5.558 5.558 0 0 1-2.4-.507 5.514 5.514 0 0 1-1.942-1.488 7.104 7.104 0 0 1-1.759-4.883 7.548 7.548 0 0 1 1.825-4.993 5.822 5.822 0 0 1 2.015-1.507 5.868 5.868 0 0 1 2.47-.52 4.76 4.76 0 0 1 2.306.525 4.713 4.713 0 0 1 1.76 1.567l.11-1.711h3.21v13.168h-3.22l-.11-1.919a4.952 4.952 0 0 1-1.836 1.684 5.001 5.001 0 0 1-2.43.584zm.835-3.14c.638 0 1.198-.174 1.726-.49.484-.349.88-.807 1.187-1.363.275-.556.418-1.22.418-1.962a3.701 3.701 0 0 0-.367-1.868 3.736 3.736 0 0 0-1.25-1.446 3.263 3.263 0 0 0-3.429 0c-.483.35-.88.807-1.187 1.363a4.34 4.34 0 0 0-.418 1.962 3.7 3.7 0 0 0 .367 1.868c.283.581.714 1.08 1.25 1.446.516.316 1.077.49 1.703.49zm12.257-13.93c0 .38-.066.73-.242 1.013a2.054 2.054 0 0 1-.737.698c-.319.174-.66.24-1.011.24-.352 0-.704-.066-1.022-.24a2.015 2.015 0 0 1-.737-.698 1.97 1.97 0 0 1-.242-1.014c0-.392.077-.74.242-1.013.176-.327.429-.524.737-.698.318-.174.66-.25 1.022-.25a2.036 2.036 0 0 1 1.759.937c.16.317.239.67.23 1.024zm-3.738 16.677V12.757h3.496v13.168h-3.507zm12.84-9.658c-.166-.076-.386-.109-.55-.141-.22-.044-.396-.044-.605-.044-.978 0-1.715.283-2.199.872-.527.6-.769 1.439-.769 2.518v6.464h-3.507V12.746h3.221l.11 1.995c.352-.698.77-1.22 1.363-1.613a3.43 3.43 0 0 1 1.99-.545c.253 0 .494.021.703.065.11.033.176.033.242.065zm1.406-8.895h3.496v7.086a5.533 5.533 0 0 1 1.758-1.504 5.56 5.56 0 0 1 3.592-.437 5.526 5.526 0 0 1 3.092 1.865 7.104 7.104 0 0 1 1.759 4.894 7.55 7.55 0 0 1-1.825 4.993 5.822 5.822 0 0 1-2.016 1.507 5.868 5.868 0 0 1-2.47.52 4.759 4.759 0 0 1-2.306-.525 4.712 4.712 0 0 1-1.76-1.568l-.11 1.711-3.21.033zm6.76 15.806c.627 0 1.187-.174 1.715-.49.484-.349.88-.807 1.187-1.363.286-.556.418-1.22.418-1.962 0-.73-.132-1.395-.418-1.951a4.099 4.099 0 0 0-1.187-1.363 3.263 3.263 0 0 0-3.43 0c-.494.35-.879.807-1.198 1.363a4.34 4.34 0 0 0-.417 1.962 3.7 3.7 0 0 0 .366 1.868c.284.581.714 1.08 1.25 1.446.516.316 1.077.49 1.714.49zm8.255 2.758V12.746h3.221l.11 1.712a4.338 4.338 0 0 1 1.663-1.556 4.384 4.384 0 0 1 2.228-.505 4.535 4.535 0 0 1 2.504.702 4.48 4.48 0 0 1 1.695 1.958c.385.829.594 1.853.594 2.998v7.892H92.79v-7.434c0-.916-.21-1.635-.627-2.17-.418-.523-.99-.806-1.715-.806-.527 0-.99.109-1.396.349-.385.25-.703.566-.945 1.013-.245.452-.366.96-.352 1.472v7.543zM98.044 7.34h3.506v7.085a5.123 5.123 0 0 1 1.805-1.51 5.171 5.171 0 0 1 2.296-.55 5.559 5.559 0 0 1 2.4.506 5.505 5.505 0 0 1 1.941 1.488 7.123 7.123 0 0 1 1.748 4.884 7.542 7.542 0 0 1-1.824 4.993 5.825 5.825 0 0 1-2.016 1.507 5.869 5.869 0 0 1-2.469.52 4.76 4.76 0 0 1-2.307-.525 4.712 4.712 0 0 1-1.76-1.568l-.099 1.712-3.221.032zm8.508 15.326c.495-.349.879-.807 1.198-1.363.275-.556.418-1.22.418-1.962a3.703 3.703 0 0 0-.367-1.868 3.739 3.739 0 0 0-1.249-1.446 3.265 3.265 0 0 0-3.43 0 4.112 4.112 0 0 0-1.187 1.363 3.928 3.928 0 0 0-.418 1.962 3.713 3.713 0 0 0 1.616 3.314c.517.316 1.045.49 1.704.49.638 0 1.198-.174 1.715-.49z"/></g></g></g></svg>