<svg xmlns="http://www.w3.org/2000/svg" width="153" height="33"><path fill="#737373" d="M59.237 6.721h4.58v19.384H60.47V13.802c.025-.778.075-2.059.15-3.49h-.075c-.125.552-.251 1.205-.377 1.531L54.38 26.13h-2.214l-5.838-14.16a11.71 11.71 0 01-.453-1.657H45.8c.025.301.075.703.1 1.23.025 1.055.025 1.908.025 2.662V26.18H42.78V6.77h4.756l4.856 12.178c.453 1.055.73 1.934.881 2.511h.076l.906-2.56zm7.75 5.474h3.271v13.91h-3.27zm3.045-5.323c.377.376.579.828.579 1.356 0 .527-.202.979-.58 1.33a2.01 2.01 0 01-1.383.528c-.554 0-1.007-.176-1.384-.527a1.765 1.765 0 01-.579-1.331c0-.553.201-1.005.579-1.356a1.96 1.96 0 011.384-.553c.579 0 1.057.201 1.384.553zm13.387 5.7l.025.025v3.189l-.126-.1c-.981-.704-2.063-1.055-3.12-1.055-1.258 0-2.29.426-3.07 1.255-.78.829-1.158 1.958-1.158 3.39 0 1.38.378 2.485 1.133 3.289.73.829 1.761 1.205 3.07 1.205.453 0 .981-.1 1.56-.301a5.629 5.629 0 001.585-.829l.126-.1v3.013l-.025.025c-1.057.603-2.39.93-3.95.93-1.36 0-2.567-.302-3.6-.88-1.081-.577-1.886-1.43-2.465-2.486-.579-1.08-.881-2.26-.881-3.59 0-1.532.302-2.863.906-4.018.579-1.13 1.485-2.033 2.617-2.686s2.491-.98 3.976-.98c.604 0 1.233.076 1.837.201.654.126 1.132.327 1.56.503zm10.468-.377l.075.025v3.264l-.126-.1c-.176-.126-.427-.226-.78-.327-.377-.05-.68-.125-.981-.125-.856 0-1.56.376-2.114 1.13-.553.728-.805 1.732-.805 2.937v7.106h-3.271v-13.91h3.271v2.436h.025c.327-.779.705-1.432 1.258-1.884a3.457 3.457 0 012.215-.778c.553 0 1.006.075 1.233.226zm12.757 1.607c1.233 1.28 1.837 3.038 1.837 5.248 0 2.234-.629 4.042-1.937 5.398-1.284 1.356-3.07 2.034-5.31 2.034-2.139 0-3.85-.653-5.108-1.908-1.258-1.28-1.912-3.039-1.912-5.198 0-2.31.629-4.143 1.937-5.474 1.284-1.33 3.12-2.008 5.41-2.008 2.165 0 3.9.627 5.083 1.908zm-1.51 5.323c0-1.481-.352-2.611-1.006-3.39-.654-.778-1.56-1.155-2.717-1.155-1.183 0-2.114.402-2.794 1.206-.654.803-1.006 1.933-1.006 3.414 0 1.432.327 2.562 1.006 3.34.68.829 1.636 1.205 2.819 1.205 1.182 0 2.139-.376 2.742-1.155.63-.778.906-1.958.957-3.465zm13.589.578c.553.627.805 1.456.805 2.385 0 1.33-.528 2.36-1.535 3.164-.981.828-2.365 1.205-4.051 1.205-.554 0-1.183-.1-1.887-.226-.705-.176-1.284-.326-1.762-.552l-.075-.026v-3.188l.126.1a7.008 7.008 0 001.837.929c.679.226 1.258.326 1.811.326 1.435 0 2.14-.451 2.14-1.38 0-.327-.076-.578-.202-.779a3.415 3.415 0 00-.755-.603c-.352-.2-.931-.451-1.686-.778-.906-.377-1.56-.778-2.013-1.13a3.807 3.807 0 01-1.007-1.305c-.226-.478-.327-1.055-.327-1.708 0-1.23.478-2.285 1.485-3.063 1.006-.829 2.29-1.205 3.85-1.205.453 0 1.006.05 1.61.15a9.093 9.093 0 011.485.427l.075.025v3.063l-.125-.1c-.403-.301-.906-.527-1.46-.678-.553-.15-1.132-.251-1.686-.251-.629 0-1.057.126-1.434.377a1.165 1.165 0 00-.528 1.004c0 .452.125.803.377 1.055.302.276.956.602 1.988 1.029a10.208 10.208 0 012.944 1.732zm14.52-5.901c1.232 1.28 1.836 3.038 1.836 5.248 0 2.234-.629 4.042-1.938 5.398-1.283 1.356-3.07 2.034-5.309 2.034-2.139 0-3.85-.653-5.108-1.908-1.258-1.28-1.913-3.039-1.913-5.198 0-2.31.655-4.143 1.938-5.474 1.283-1.33 3.12-2.008 5.41-2.008 2.164 0 3.9.627 5.083 1.908zm-1.536 5.323c0-1.481-.352-2.611-1.006-3.39-.655-.778-1.586-1.155-2.718-1.155-1.183 0-2.114.402-2.793 1.206-.654.803-1.007 1.933-1.007 3.414 0 1.432.328 2.562 1.007 3.34.68.829 1.61 1.205 2.818 1.205 1.183 0 2.14-.376 2.743-1.155.63-.778.956-1.958.956-3.465zm17.514-4.243v6.578c0 .854.151 1.431.453 1.783.327.377.78.527 1.434.527.176 0 .403-.025.654-.1.302-.076.478-.176.68-.302l.126-.1v2.687l-.026.025c-.201.1-.553.226-1.031.326-.453.075-.931.15-1.384.15-2.768 0-4.152-1.48-4.152-4.418v-7.156h-4.932v11.223h-3.297V14.857h-2.29v-2.662h2.29v-1.933c0-.98.227-1.833.655-2.587a4.36 4.36 0 011.786-1.782 5.904 5.904 0 012.617-.603c.78 0 1.384.1 1.837.251l.076.025v2.838l-.126-.076c-.529-.226-1.007-.326-1.46-.326-.654 0-1.182.2-1.535.602-.352.402-.553 1.03-.553 1.833v1.758h4.932V9.056l.075-.025 3.121-.929.1-.025v4.118h3.297v2.687z"/><path fill="#f25022" d="M.61.25h15.425v15.392H.61z"/><path fill="#7fba00" d="M17.64.25h15.425v15.392H17.64z"/><path fill="#00a4ef" d="M.61 17.24h15.425v15.392H.61z"/><path fill="#ffb900" d="M17.64 17.24h15.425v15.392H17.64z"/></svg>