<svg xmlns="http://www.w3.org/2000/svg" width="106" height="31"><path fill="#33475b" d="M12.183 5.44v8.434H4.498V5.44H.85v20.132h3.648v-8.16h7.685v8.16h3.648V5.44zm15.324 13.623c0 .807-.318 1.58-.884 2.151a3.006 3.006 0 01-2.134.891c-.8 0-1.568-.32-2.134-.891a3.054 3.054 0 01-.884-2.151V10.44H18.01v8.623c0 1.73.682 3.39 1.896 4.613a6.447 6.447 0 004.576 1.91 6.447 6.447 0 004.577-1.91 6.55 6.55 0 001.896-4.613V10.44h-3.448zm25.638-7.733c0-1.768 1.16-2.328 2.431-2.328 1.024 0 2.378.785 3.262 1.739l2.267-2.692C59.973 6.507 57.678 5.44 55.8 5.44c-3.754 0-6.47 2.216-6.47 5.89 0 6.816 8.266 4.654 8.266 8.468 0 1.176-1.133 2.216-2.431 2.216-2.047 0-2.71-1.01-3.65-2.076L49 22.574c1.609 1.99 3.593 3.002 5.97 3.002 3.566 0 6.435-2.243 6.435-5.75 0-7.567-8.265-5.215-8.265-8.496m51.145 11.026c-2.045 0-2.626-.892-2.626-2.257v-6.045h3.178v-3.063h-3.178V6.95L98.15 8.537V20.85c0 3.15 2.156 4.737 5.112 4.737.464.008.927-.03 1.384-.112l.856-3.176c-.386.027-.83.054-1.217.054m-63.603-11.81c3.87 0 7.199 3.262 7.199 7.524 0 4.317-3.616 7.522-7.728 7.522-3.705 0-7.003-3.149-7.003-7.747V5.56h3.466v6.627c1.156-1.144 2.352-1.645 4.066-1.645zm2.76 10.37a3.987 3.987 0 00.489-5.005 3.94 3.94 0 00-1.765-1.46 3.904 3.904 0 00-4.286.86 3.993 3.993 0 00-.852 4.32 3.957 3.957 0 001.448 1.778 3.91 3.91 0 004.966-.493zm34.867-3.031c0 4.265-3.328 7.524-7.198 7.524-1.713 0-2.91-.503-4.065-1.645v6.636H63.58v-12.29c0-4.598 3.298-7.747 7.003-7.747 4.119 0 7.728 3.198 7.728 7.522zm-4.432-2.846a3.91 3.91 0 00-4.965-.493 3.957 3.957 0 00-1.449 1.779 3.993 3.993 0 00.853 4.32c.55.554 1.25.931 2.013 1.084a3.903 3.903 0 002.272-.225 3.94 3.94 0 001.765-1.46 3.986 3.986 0 00-.489-5.005z"/><path fill="#ff7a59" d="M89.514 10.194a7.594 7.594 0 013.204 1.285 7.669 7.669 0 012.315 2.575 7.736 7.736 0 01-1.682 9.566 7.61 7.61 0 01-3.052 1.616 7.57 7.57 0 01-6.583-1.346l-2.83 2.852c.074.234.113.476.116.721a2.496 2.496 0 01-1.532 2.309 2.463 2.463 0 01-2.703-.542 2.52 2.52 0 01-.538-2.724c.187-.458.505-.848.913-1.123a2.468 2.468 0 011.378-.422c.242.003.483.042.715.117l2.86-2.883a7.721 7.721 0 01-.116-8.648l-9.405-7.374a2.97 2.97 0 01-1.487.407 3.004 3.004 0 01-1.678-.516 3.04 3.04 0 01-1.11-1.368 3.067 3.067 0 01.659-3.317 2.999 2.999 0 013.293-.655 3.026 3.026 0 011.354 1.124c.332.5.508 1.09.507 1.692a3.04 3.04 0 01-.108.759l9.55 7.497a7.564 7.564 0 013.61-1.602v-3.51c-.46-.217-.85-.56-1.124-.992a2.719 2.719 0 01-.422-1.444v-.08c0-.718.282-1.405.785-1.912a2.67 2.67 0 011.896-.791h.08a2.67 2.67 0 011.896.791c.503.507.786 1.194.786 1.911v.081a2.718 2.718 0 01-.423 1.444 2.687 2.687 0 01-1.124.992zm-1.169 11.54a3.9 3.9 0 002.768-1.156 3.961 3.961 0 00.487-4.981 3.921 3.921 0 00-1.757-1.453 3.886 3.886 0 00-4.265.855 3.975 3.975 0 00-.85 4.299c.296.72.797 1.337 1.44 1.77.643.435 1.4.667 2.174.668z"/></svg>