<svg xmlns="http://www.w3.org/2000/svg" width="56" height="72" viewBox="0 0 56 72"><defs><clipPath id="rc6qa"><path fill="#fff" d="M53.118 37.317a7.844 7.844 0 0 1-.994 4.83 7.837 7.837 0 0 1-3.687 3.276 7.847 7.847 0 0 1-1.463 3.04l6.18 12.932a2.11 2.11 0 0 1-2.37 2.967l-9.309-2.11-4.205 8.568A2.11 2.11 0 0 1 35.376 72h-.011a2.109 2.109 0 0 1-1.892-1.2L27.79 58.908 22.107 70.8a2.11 2.11 0 0 1-1.892 1.2h-.011a2.11 2.11 0 0 1-1.894-1.18l-4.205-8.569-9.309 2.111a2.11 2.11 0 0 1-2.37-2.967l6.18-12.933a7.847 7.847 0 0 1-1.463-3.039 7.842 7.842 0 0 1-3.687-3.275 7.84 7.84 0 0 1-.994-4.83 7.838 7.838 0 0 1-2.343-4.34 7.837 7.837 0 0 1 .718-4.88 7.839 7.839 0 0 1-.718-4.879 7.838 7.838 0 0 1 2.343-4.339 7.839 7.839 0 0 1 .994-4.83 7.84 7.84 0 0 1 3.687-3.276 7.84 7.84 0 0 1 2.585-4.2 7.844 7.844 0 0 1 4.585-1.817 7.845 7.845 0 0 1 3.867-3.062 7.84 7.84 0 0 1 4.93-.14A7.84 7.84 0 0 1 27.79 0a7.84 7.84 0 0 1 4.68 1.555 7.839 7.839 0 0 1 4.93.14 7.838 7.838 0 0 1 3.867 3.062 7.842 7.842 0 0 1 4.585 1.817c1.3 1.09 2.2 2.57 2.585 4.2a7.84 7.84 0 0 1 3.687 3.275 7.836 7.836 0 0 1 .994 4.831 7.838 7.838 0 0 1 2.344 4.339 7.843 7.843 0 0 1-.719 4.88 7.837 7.837 0 0 1 .719 4.879 7.842 7.842 0 0 1-2.344 4.34zM50.596 26.8a3.615 3.615 0 0 0 .711-2.848 3.616 3.616 0 0 0-1.642-2.434 2.109 2.109 0 0 1-.888-2.44 3.617 3.617 0 0 0-.307-2.92 3.615 3.615 0 0 0-2.375-1.724 2.11 2.11 0 0 1-1.67-1.99 3.616 3.616 0 0 0-1.285-2.638 3.617 3.617 0 0 0-2.823-.809A2.11 2.11 0 0 1 38.068 7.7a3.614 3.614 0 0 0-2.11-2.04 3.617 3.617 0 0 0-2.93.205 2.11 2.11 0 0 1-2.557-.45 3.615 3.615 0 0 0-2.681-1.195c-1.02 0-1.998.435-2.682 1.194a2.11 2.11 0 0 1-2.557.451 3.613 3.613 0 0 0-2.928-.205 3.618 3.618 0 0 0-2.112 2.04 2.109 2.109 0 0 1-2.248 1.298 3.616 3.616 0 0 0-2.823.809 3.617 3.617 0 0 0-1.286 2.639 2.11 2.11 0 0 1-1.67 1.989c-.999.212-1.865.841-2.375 1.725a3.619 3.619 0 0 0-.306 2.92 2.11 2.11 0 0 1-.888 2.44 3.615 3.615 0 0 0-1.642 2.433 3.615 3.615 0 0 0 .71 2.848 2.11 2.11 0 0 1 0 2.597 3.616 3.616 0 0 0-.71 2.848 3.616 3.616 0 0 0 1.642 2.434 2.11 2.11 0 0 1 .888 2.44 3.619 3.619 0 0 0 .306 2.92 3.617 3.617 0 0 0 2.376 1.724 2.11 2.11 0 0 1 1.669 1.99 3.617 3.617 0 0 0 1.286 2.638c.782.656 1.81.95 2.823.809a2.11 2.11 0 0 1 2.248 1.298 3.617 3.617 0 0 0 2.111 2.04 3.616 3.616 0 0 0 2.929-.205 2.107 2.107 0 0 1 2.557.45 3.616 3.616 0 0 0 2.682 1.195c1.02 0 1.998-.435 2.681-1.194a2.109 2.109 0 0 1 2.558-.451c.902.48 1.97.554 2.928.205a3.614 3.614 0 0 0 2.111-2.04 2.109 2.109 0 0 1 2.249-1.298 3.614 3.614 0 0 0 2.822-.809 3.617 3.617 0 0 0 1.287-2.639 2.11 2.11 0 0 1 1.669-1.989c1-.212 1.866-.841 2.375-1.724.51-.884.622-1.948.306-2.92a2.11 2.11 0 0 1 .889-2.44 3.618 3.618 0 0 0 1.642-2.434 3.616 3.616 0 0 0-.711-2.848 2.109 2.109 0 0 1 0-2.596zM47.47 59.285L43.5 50.979a7.86 7.86 0 0 1-2.233.462 7.842 7.842 0 0 1-3.866 3.062 7.84 7.84 0 0 1-4.93.139c-.498.37-1.036.68-1.603.922l4.534 9.488 3.02-6.156a2.11 2.11 0 0 1 2.36-1.128zM20.18 65.05l4.533-9.487a7.842 7.842 0 0 1-1.602-.922 7.84 7.84 0 0 1-4.93-.14 7.84 7.84 0 0 1-3.867-3.061 7.863 7.863 0 0 1-2.233-.463l-3.97 8.306 6.687-1.516a2.11 2.11 0 0 1 2.36 1.128z"/></clipPath><clipPath id="rc6qb"><path fill="#fff" d="M23.614 38.806a2.879 2.879 0 0 0 4.07 0l12.473-12.473a2.878 2.878 0 1 0-4.07-4.07L25.649 32.7l-5.736-5.735a2.877 2.877 0 1 0-4.07 4.07z"/></clipPath></defs><g><g><g><g><path fill="#005fec" d="M53.118 37.317a7.844 7.844 0 0 1-.994 4.83 7.837 7.837 0 0 1-3.687 3.276 7.847 7.847 0 0 1-1.463 3.04l6.18 12.932a2.11 2.11 0 0 1-2.37 2.967l-9.309-2.11-4.205 8.568A2.11 2.11 0 0 1 35.376 72h-.011a2.109 2.109 0 0 1-1.892-1.2L27.79 58.908 22.107 70.8a2.11 2.11 0 0 1-1.892 1.2h-.011a2.11 2.11 0 0 1-1.894-1.18l-4.205-8.569-9.309 2.111a2.11 2.11 0 0 1-2.37-2.967l6.18-12.933a7.847 7.847 0 0 1-1.463-3.039 7.842 7.842 0 0 1-3.687-3.275 7.84 7.84 0 0 1-.994-4.83 7.838 7.838 0 0 1-2.343-4.34 7.837 7.837 0 0 1 .718-4.88 7.839 7.839 0 0 1-.718-4.879 7.838 7.838 0 0 1 2.343-4.339 7.839 7.839 0 0 1 .994-4.83 7.84 7.84 0 0 1 3.687-3.276 7.84 7.84 0 0 1 2.585-4.2 7.844 7.844 0 0 1 4.585-1.817 7.845 7.845 0 0 1 3.867-3.062 7.84 7.84 0 0 1 4.93-.14A7.84 7.84 0 0 1 27.79 0a7.84 7.84 0 0 1 4.68 1.555 7.839 7.839 0 0 1 4.93.14 7.838 7.838 0 0 1 3.867 3.062 7.842 7.842 0 0 1 4.585 1.817c1.3 1.09 2.2 2.57 2.585 4.2a7.84 7.84 0 0 1 3.687 3.275 7.836 7.836 0 0 1 .994 4.831 7.838 7.838 0 0 1 2.344 4.339 7.843 7.843 0 0 1-.719 4.88 7.837 7.837 0 0 1 .719 4.879 7.842 7.842 0 0 1-2.344 4.34zM50.596 26.8a3.615 3.615 0 0 0 .711-2.848 3.616 3.616 0 0 0-1.642-2.434 2.109 2.109 0 0 1-.888-2.44 3.617 3.617 0 0 0-.307-2.92 3.615 3.615 0 0 0-2.375-1.724 2.11 2.11 0 0 1-1.67-1.99 3.616 3.616 0 0 0-1.285-2.638 3.617 3.617 0 0 0-2.823-.809A2.11 2.11 0 0 1 38.068 7.7a3.614 3.614 0 0 0-2.11-2.04 3.617 3.617 0 0 0-2.93.205 2.11 2.11 0 0 1-2.557-.45 3.615 3.615 0 0 0-2.681-1.195c-1.02 0-1.998.435-2.682 1.194a2.11 2.11 0 0 1-2.557.451 3.613 3.613 0 0 0-2.928-.205 3.618 3.618 0 0 0-2.112 2.04 2.109 2.109 0 0 1-2.248 1.298 3.616 3.616 0 0 0-2.823.809 3.617 3.617 0 0 0-1.286 2.639 2.11 2.11 0 0 1-1.67 1.989c-.999.212-1.865.841-2.375 1.725a3.619 3.619 0 0 0-.306 2.92 2.11 2.11 0 0 1-.888 2.44 3.615 3.615 0 0 0-1.642 2.433 3.615 3.615 0 0 0 .71 2.848 2.11 2.11 0 0 1 0 2.597 3.616 3.616 0 0 0-.71 2.848 3.616 3.616 0 0 0 1.642 2.434 2.11 2.11 0 0 1 .888 2.44 3.619 3.619 0 0 0 .306 2.92 3.617 3.617 0 0 0 2.376 1.724 2.11 2.11 0 0 1 1.669 1.99 3.617 3.617 0 0 0 1.286 2.638c.782.656 1.81.95 2.823.809a2.11 2.11 0 0 1 2.248 1.298 3.617 3.617 0 0 0 2.111 2.04 3.616 3.616 0 0 0 2.929-.205 2.107 2.107 0 0 1 2.557.45 3.616 3.616 0 0 0 2.682 1.195c1.02 0 1.998-.435 2.681-1.194a2.109 2.109 0 0 1 2.558-.451c.902.48 1.97.554 2.928.205a3.614 3.614 0 0 0 2.111-2.04 2.109 2.109 0 0 1 2.249-1.298 3.614 3.614 0 0 0 2.822-.809 3.617 3.617 0 0 0 1.287-2.639 2.11 2.11 0 0 1 1.669-1.989c1-.212 1.866-.841 2.375-1.724.51-.884.622-1.948.306-2.92a2.11 2.11 0 0 1 .889-2.44 3.618 3.618 0 0 0 1.642-2.434 3.616 3.616 0 0 0-.711-2.848 2.109 2.109 0 0 1 0-2.596zM47.47 59.285L43.5 50.979a7.86 7.86 0 0 1-2.233.462 7.842 7.842 0 0 1-3.866 3.062 7.84 7.84 0 0 1-4.93.139c-.498.37-1.036.68-1.603.922l4.534 9.488 3.02-6.156a2.11 2.11 0 0 1 2.36-1.128zM20.18 65.05l4.533-9.487a7.842 7.842 0 0 1-1.602-.922 7.84 7.84 0 0 1-4.93-.14 7.84 7.84 0 0 1-3.867-3.061 7.863 7.863 0 0 1-2.233-.463l-3.97 8.306 6.687-1.516a2.11 2.11 0 0 1 2.36 1.128z"/><path fill="none" stroke="#fff" stroke-miterlimit="20" d="M53.118 37.317a7.844 7.844 0 0 1-.994 4.83 7.837 7.837 0 0 1-3.687 3.276 7.847 7.847 0 0 1-1.463 3.04l6.18 12.932a2.11 2.11 0 0 1-2.37 2.967l-9.309-2.11-4.205 8.568A2.11 2.11 0 0 1 35.376 72h-.011a2.109 2.109 0 0 1-1.892-1.2L27.79 58.908 22.107 70.8a2.11 2.11 0 0 1-1.892 1.2h-.011a2.11 2.11 0 0 1-1.894-1.18l-4.205-8.569-9.309 2.111a2.11 2.11 0 0 1-2.37-2.967l6.18-12.933a7.847 7.847 0 0 1-1.463-3.039 7.842 7.842 0 0 1-3.687-3.275 7.84 7.84 0 0 1-.994-4.83 7.838 7.838 0 0 1-2.343-4.34 7.837 7.837 0 0 1 .718-4.88 7.839 7.839 0 0 1-.718-4.879 7.838 7.838 0 0 1 2.343-4.339 7.839 7.839 0 0 1 .994-4.83 7.84 7.84 0 0 1 3.687-3.276 7.84 7.84 0 0 1 2.585-4.2 7.844 7.844 0 0 1 4.585-1.817 7.845 7.845 0 0 1 3.867-3.062 7.84 7.84 0 0 1 4.93-.14A7.84 7.84 0 0 1 27.79 0a7.84 7.84 0 0 1 4.68 1.555 7.839 7.839 0 0 1 4.93.14 7.838 7.838 0 0 1 3.867 3.062 7.842 7.842 0 0 1 4.585 1.817c1.3 1.09 2.2 2.57 2.585 4.2a7.84 7.84 0 0 1 3.687 3.275 7.836 7.836 0 0 1 .994 4.831 7.838 7.838 0 0 1 2.344 4.339 7.843 7.843 0 0 1-.719 4.88 7.837 7.837 0 0 1 .719 4.879 7.842 7.842 0 0 1-2.344 4.34zM50.596 26.8a3.615 3.615 0 0 0 .711-2.848 3.616 3.616 0 0 0-1.642-2.434 2.109 2.109 0 0 1-.888-2.44 3.617 3.617 0 0 0-.307-2.92 3.615 3.615 0 0 0-2.375-1.724 2.11 2.11 0 0 1-1.67-1.99 3.616 3.616 0 0 0-1.285-2.638 3.617 3.617 0 0 0-2.823-.809A2.11 2.11 0 0 1 38.068 7.7a3.614 3.614 0 0 0-2.11-2.04 3.617 3.617 0 0 0-2.93.205 2.11 2.11 0 0 1-2.557-.45 3.615 3.615 0 0 0-2.681-1.195c-1.02 0-1.998.435-2.682 1.194a2.11 2.11 0 0 1-2.557.451 3.613 3.613 0 0 0-2.928-.205 3.618 3.618 0 0 0-2.112 2.04 2.109 2.109 0 0 1-2.248 1.298 3.616 3.616 0 0 0-2.823.809 3.617 3.617 0 0 0-1.286 2.639 2.11 2.11 0 0 1-1.67 1.989c-.999.212-1.865.841-2.375 1.725a3.619 3.619 0 0 0-.306 2.92 2.11 2.11 0 0 1-.888 2.44 3.615 3.615 0 0 0-1.642 2.433 3.615 3.615 0 0 0 .71 2.848 2.11 2.11 0 0 1 0 2.597 3.616 3.616 0 0 0-.71 2.848 3.616 3.616 0 0 0 1.642 2.434 2.11 2.11 0 0 1 .888 2.44 3.619 3.619 0 0 0 .306 2.92 3.617 3.617 0 0 0 2.376 1.724 2.11 2.11 0 0 1 1.669 1.99 3.617 3.617 0 0 0 1.286 2.638c.782.656 1.81.95 2.823.809a2.11 2.11 0 0 1 2.248 1.298 3.617 3.617 0 0 0 2.111 2.04 3.616 3.616 0 0 0 2.929-.205 2.107 2.107 0 0 1 2.557.45 3.616 3.616 0 0 0 2.682 1.195c1.02 0 1.998-.435 2.681-1.194a2.109 2.109 0 0 1 2.558-.451c.902.48 1.97.554 2.928.205a3.614 3.614 0 0 0 2.111-2.04 2.109 2.109 0 0 1 2.249-1.298 3.614 3.614 0 0 0 2.822-.809 3.617 3.617 0 0 0 1.287-2.639 2.11 2.11 0 0 1 1.669-1.989c1-.212 1.866-.841 2.375-1.724.51-.884.622-1.948.306-2.92a2.11 2.11 0 0 1 .889-2.44 3.618 3.618 0 0 0 1.642-2.434 3.616 3.616 0 0 0-.711-2.848 2.109 2.109 0 0 1 0-2.596zM47.47 59.285L43.5 50.979a7.86 7.86 0 0 1-2.233.462 7.842 7.842 0 0 1-3.866 3.062 7.84 7.84 0 0 1-4.93.139c-.498.37-1.036.68-1.603.922l4.534 9.488 3.02-6.156a2.11 2.11 0 0 1 2.36-1.128zM20.18 65.05l4.533-9.487a7.842 7.842 0 0 1-1.602-.922 7.84 7.84 0 0 1-4.93-.14 7.84 7.84 0 0 1-3.867-3.061 7.863 7.863 0 0 1-2.233-.463l-3.97 8.306 6.687-1.516a2.11 2.11 0 0 1 2.36 1.128z" clip-path="url(&quot;#rc6qa&quot;)"/></g><g><path fill="#00ecd0" d="M23.614 38.806a2.879 2.879 0 0 0 4.07 0l12.473-12.473a2.878 2.878 0 1 0-4.07-4.07L25.649 32.7l-5.736-5.735a2.877 2.877 0 1 0-4.07 4.07z"/><path fill="none" stroke="#fff" stroke-miterlimit="20" d="M23.614 38.806a2.879 2.879 0 0 0 4.07 0l12.473-12.473a2.878 2.878 0 1 0-4.07-4.07L25.649 32.7v0l-5.736-5.735a2.877 2.877 0 1 0-4.07 4.07z" clip-path="url(&quot;#rc6qb&quot;)"/></g></g></g></g></svg>