<svg xmlns="http://www.w3.org/2000/svg" width="72" height="72" viewBox="0 0 72 72"><g><g><g><path fill="#005fec" d="M71.154 61.441l-12.979-2.42L55.755 72 45.06 56.4a28.865 28.865 0 0 1-9.482 1.593 28.87 28.87 0 0 1-9.482-1.593L15.4 72l-2.42-12.979L0 61.441l11.342-16.542A28.829 28.829 0 0 1 6.58 28.997C6.58 13.007 19.588 0 35.577 0s28.997 13.008 28.997 28.997a28.825 28.825 0 0 1-4.762 15.902zm-49.024-6.76a29.186 29.186 0 0 1-8.06-6.256l-4.777 6.967 7.08-1.32 1.32 7.079zm13.447-.93c13.65 0 24.754-11.105 24.754-24.754 0-13.65-11.105-24.754-24.754-24.754-13.649 0-24.753 11.105-24.753 24.754 0 13.65 11.104 24.754 24.753 24.754zm26.284 1.64l-4.777-6.966a29.186 29.186 0 0 1-8.06 6.256l4.438 6.47 1.32-7.08z"/></g><g><path fill="#00ecd0" d="M30.41 34.367l-6.9-6.899-3 3 9.9 9.9L50.648 20.13l-3-3z"/></g></g></g></svg>