<svg xmlns="http://www.w3.org/2000/svg" width="72" height="72" viewBox="0 0 72 72"><g><g><g><g><path fill="#00ecd0" d="M29.897 42.696l8.168-24.505a1.733 1.733 0 0 0-3.287-1.096L26.609 41.6a1.733 1.733 0 0 0 3.288 1.096z"/></g><g><path fill="#00ecd0" d="M36.94 29.898a5.204 5.204 0 0 1 5.198-5.198 5.204 5.204 0 0 1 5.198 5.198 5.204 5.204 0 0 1-5.198 5.199 5.204 5.204 0 0 1-5.198-5.199zm3.466 0c0 .956.777 1.733 1.732 1.733.956 0 1.733-.777 1.733-1.733 0-.955-.777-1.732-1.733-1.732-.955 0-1.732.777-1.732 1.732z"/></g><g><path fill="#00ecd0" d="M27.727 29.898a5.204 5.204 0 0 1-5.199 5.199 5.204 5.204 0 0 1-5.198-5.199 5.204 5.204 0 0 1 5.198-5.198 5.204 5.204 0 0 1 5.198 5.198zm-3.466 0c0-.955-.777-1.732-1.733-1.732-.955 0-1.733.777-1.733 1.732 0 .956.778 1.733 1.733 1.733.956 0 1.733-.777 1.733-1.733z"/></g></g><g><path fill="#005fec" d="M71.578 26.156c.274.365.422.81.422 1.266v36.844C72 68.53 68.53 72 64.266 72H33.328c-4.265 0-7.734-3.47-7.734-7.734v-.856a7.716 7.716 0 0 1-1.456-1.141L2.262 40.393c-3.016-3.016-3.016-7.923 0-10.939L28.115 3.601a2.11 2.11 0 0 1 1.194-.597L50.19.021a2.112 2.112 0 0 1 1.79.597l4.475 4.474L60.93.618A2.11 2.11 0 0 1 63.913 3.6l-4.475 4.475 4.475 4.474c.47.47.69 1.133.596 1.79l-.287 2.009zm-44.457 33.13a3.493 3.493 0 0 0 2.486 1.03c.939 0 1.822-.366 2.486-1.03l25.356-25.357 2.735-19.141-3.73-3.73-2.982 2.984 1.491 1.491a2.11 2.11 0 0 1-2.983 2.983l-5.966-5.966a2.11 2.11 0 1 1 2.983-2.983l1.492 1.492 2.983-2.983-3.73-3.73-19.14 2.735L5.244 32.437a3.52 3.52 0 0 0 0 4.972zm40.66-31.161l-4.403-5.87-1.852 12.967a2.11 2.11 0 0 1-.597 1.193L35.076 62.27a7.704 7.704 0 0 1-5.253 2.256 3.52 3.52 0 0 0 3.505 3.256h30.938a3.52 3.52 0 0 0 3.515-3.515z"/></g></g></g></svg>