<svg xmlns="http://www.w3.org/2000/svg" width="105" height="35"><path fill="#ea4335" d="M44.76 17.89c0 4.841-3.843 8.41-8.56 8.41-4.717 0-8.56-3.569-8.56-8.41 0-4.876 3.843-8.41 8.56-8.41 4.717 0 8.56 3.534 8.56 8.41zm-3.747 0c0-3.026-2.227-5.096-4.813-5.096-2.585 0-4.813 2.07-4.813 5.096 0 2.995 2.228 5.095 4.813 5.095 2.586 0 4.813-2.104 4.813-5.095z"/><path fill="#fbbc05" d="M63.23 17.89c0 4.841-3.843 8.41-8.56 8.41-4.717 0-8.56-3.569-8.56-8.41 0-4.872 3.843-8.41 8.56-8.41 4.717 0 8.56 3.534 8.56 8.41zm-3.747 0c0-3.026-2.227-5.096-4.813-5.096-2.585 0-4.813 2.07-4.813 5.096 0 2.995 2.228 5.095 4.813 5.095 2.586 0 4.813-2.104 4.813-5.095z"/><path fill="#4285f4" d="M80.929 25.086c0 6.21-3.717 8.747-8.11 8.747-4.136 0-6.625-2.726-7.564-4.955l3.262-1.339c.581 1.369 2.005 2.984 4.298 2.984 2.812 0 4.555-1.71 4.555-4.929v-1.21h-.13c-.84 1.02-2.455 1.912-4.494 1.912-4.267 0-8.176-3.663-8.176-8.376 0-4.747 3.909-8.44 8.176-8.44 2.035 0 3.65.891 4.493 1.88h.131V9.993h3.559zm-3.294-7.166c0-2.961-2.004-5.126-4.555-5.126-2.585 0-4.751 2.165-4.751 5.126 0 2.93 2.166 5.065 4.751 5.065 2.551 0 4.555-2.134 4.555-5.065z"/><path fill="#34a853" d="M86.795 1.14v24.645H83.14V1.14z"/><path fill="#ea4335" d="M103.948 22.572c-.939 1.369-3.201 3.727-7.11 3.727-4.848 0-8.468-3.693-8.468-8.41 0-5 3.651-8.409 8.049-8.409 4.428 0 6.594 3.473 7.302 5.35l.388.955-11.407 4.656c.873 1.688 2.231 2.548 4.136 2.548 1.908 0 3.232-.925 4.201-2.328zm-4.236-8.057c-.42-1.05-1.681-1.782-3.166-1.782-1.905 0-4.556 1.657-4.46 4.903z"/><path fill="#4285f4" d="M13.809 15.703v-3.568h12.2c.119.622.18 1.357.18 2.153 0 2.677-.742 5.987-3.135 8.345-2.328 2.39-5.302 3.663-9.241 3.663C6.51 26.296.37 20.434.37 13.238S6.51.18 13.813.18c4.04 0 6.917 1.562 9.08 3.598l-2.555 2.518c-1.551-1.433-3.652-2.548-6.53-2.548-5.332 0-9.502 4.235-9.502 9.49s4.17 9.49 9.503 9.49c3.458 0 5.428-1.369 6.69-2.612 1.023-1.009 1.697-2.45 1.962-4.417z"/></svg>