<svg xmlns="http://www.w3.org/2000/svg" width="100" height="31"><path fill="#f60" d="M74.45 29.492l8.311-9.205-8.311-9.207h8.77l4.116 4.472L91.3 11.08h8.464l-8.272 9.169 8.385 9.243h-8.805l-4.08-4.509-4.04 4.51z"/><path fill="#f60" d="M74.452 6.955H65.04v4.127h9.413v6.22H65.04v5.71h9.413v6.482H58.12V.49h16.332z"/><path fill="#652c8f" d="M58.121.49v29.004h-6.89v-1.878h-.075a6.703 6.703 0 01-5.565 2.93c-5.212 0-9.01-4.144-9.601-8.95H22.352c0 2.142 1.81 3.948 3.91 3.948 1.812 0 2.5-.379 3.405-1.654h6.698c-1.754 4.245-5.07 6.574-10.102 6.574-5.984 0-10.673-4.245-10.673-10.295 0-1.012.124-1.971.356-2.867h-7.79v12.193H.34V.49h17.384v6.465H8.156v4.127h8.767v3.801c1.748-3.058 5.098-4.935 9.34-4.935 5.223 0 8.745 2.71 10.111 7.131 1.198-4.013 4.61-7.048 9.14-7.048 2.21 0 4.116.6 5.642 2.329h.075V.49zM29.992 17.389c-.361-1.88-1.737-3.046-3.73-3.046-1.809 0-3.258 1.204-3.693 3.046h7.423zm21.039 2.921c0-2.603-1.134-5.107-3.98-5.107-2.746 0-4.118 2.504-4.118 5.107 0 2.436 1.578 4.768 4.118 4.768 2.778 0 3.98-2.3 3.98-4.768z"/></svg>