<svg xmlns="http://www.w3.org/2000/svg" width="139" height="33"><path fill="#041e42" d="M49.531 11.77v1.835h.056c.66-.983 1.757-2.14 4.188-2.14 1.89 0 3.341.962 3.963 2.416h.056c.531-.735 1.14-1.291 1.822-1.685.807-.467 1.705-.735 2.836-.735 2.56 0 4.827 1.665 4.827 5.864v7.964h-3.903v-7.408c0-2.128-.768-3.358-2.366-3.358-1.17 0-2.02.74-2.344 1.649-.112.312-.164.739-.164 1.096v8.025H54.6v-7.712c0-1.807-.738-3.062-2.314-3.062-1.26 0-2.05.934-2.374 1.734-.138.341-.181.735-.181 1.105v7.931h-3.907V11.77zm37.892 0v2.55h.108c.716-1.95 2.417-2.855 3.911-2.855.376 0 .583.028.885.085v3.541c-.358-.048-.69-.097-1.157-.097-1.692 0-2.87.926-3.169 2.376a4.78 4.78 0 00-.086.999v6.924h-4.006V11.77zm10.344-4.48v4.256h3.384v3.444h-3.384v5.08c0 1.645.444 2.441 1.765 2.441a6.19 6.19 0 001.477-.166l.052 2.855c-.531.187-1.663.39-2.81.39-1.352 0-2.479-.443-3.165-1.13-.786-.783-1.149-2.067-1.149-3.894V7.29zm-54.664 18h-3.886v-18h3.886zm-10.357-4.83v-1.685c-2.474-.012-4.65.504-4.65 2.36 0 1.214.855 1.786 1.93 1.786 1.287 0 2.319-.792 2.62-1.73a2.4 2.4 0 00.096-.73zm3.873-3.236v4.812c0 1.247.056 2.282.228 3.257-3.272.894-3.868-1.442-3.868-1.442h-.086c-.898 1.077-2.392 1.747-4.184 1.747-2.91 0-4.58-1.974-4.58-4.082 0-3.452 3.285-5.145 8.488-5.137v-.195c0-.816-.389-2.092-2.776-2.087-1.442 0-2.966.467-3.92 1.035l-.765-2.461c1.045-.569 2.962-1.206 5.375-1.206 4.702 0 6.092 2.692 6.092 5.759zM4.61 7.29c.402 1.905 1.541 7.436 1.541 7.436.48 2.274.92 4.658 1.252 6.542h.06c.325-2.002.834-3.898 1.378-6.246l1.921-7.732h4.253l1.796 7.931c.47 2.206.846 3.907 1.144 5.958h.056c.323-2.071.747-3.842 1.209-6.108l1.726-7.781h4.08l-5.055 18c-3.22.661-4.456-.557-4.896-2.49-.44-1.938-1.304-5.621-1.304-5.621-.444-2.018-.79-3.44-1.032-5.511h-.06c-.345 2.05-.708 3.488-1.243 5.507l-2.12 8.118c-3.29.617-4.43-.296-5.06-2.778C3.713 20.391.32 7.295.32 7.295h4.291zm72.826 13.17v-1.685c-2.474-.012-4.65.504-4.65 2.36 0 1.214.855 1.786 1.93 1.786 1.287 0 2.319-.792 2.62-1.73a2.4 2.4 0 00.096-.73zm3.877 1.576c0 1.247.056 2.282.229 3.257-3.273.894-3.868-1.442-3.868-1.442h-.091c-.894 1.077-2.392 1.747-4.18 1.747-2.904 0-4.58-1.974-4.58-4.082 0-3.452 3.286-5.145 8.484-5.137v-.195c0-.816-.393-2.092-2.776-2.087-1.442 0-2.966.467-3.92 1.035l-.764-2.461c1.044-.569 2.961-1.206 5.375-1.206 4.7 0 6.091 2.692 6.091 5.759z" opacity=".8"/><path fill="#ffc124" d="M116.908 19.091c.383.658.358 1.391-.051 1.726l-7.066 4.881c-.736.42-1.838-.089-2.462-1.153-.628-1.069-.516-2.26.22-2.68l7.823-3.588c.49-.186 1.153.157 1.536.814zm9.3 0c.387-.657 1.046-.996 1.536-.818l7.828 3.588c.736.42.843 1.611.22 2.68-.63 1.064-1.735 1.569-2.467 1.153l-7.066-4.88c-.404-.332-.434-1.07-.051-1.722zm-4.652 2.647c.77 0 1.403.39 1.489.903l.762 8.473c0 .84-.994 1.527-2.247 1.527-1.248 0-2.246-.687-2.246-1.527l.757-8.473c.086-.513.719-.903 1.485-.903zm11.77-14.546c.731-.42 1.837.085 2.465 1.154.624 1.068.517 2.26-.22 2.68l-7.827 3.592c-.49.178-1.153-.162-1.536-.819-.383-.657-.353-1.39.051-1.722zm-17.954 7.425l-7.823-3.591c-.732-.42-.844-1.612-.22-2.68.624-1.07 1.73-1.574 2.462-1.154l7.066 4.885c.409.327.434 1.065.051 1.722s-1.045.997-1.536.819zm3.942-12.84c0-.84.994-1.527 2.246-1.527s2.247.687 2.247 1.527l-.762 8.473c-.086.508-.719.903-1.489.903-.766 0-1.399-.395-1.485-.903zm18.582 23.888a.103.103 0 00.107-.106c0-.064-.043-.106-.107-.106h-.194v.212zm-.353-.319c0-.02.021-.042.043-.042h.322c.134 0 .267.093.267.255a.235.235 0 01-.163.237c.038.08.077.161.116.237a.042.042 0 01-.039.06h-.099c-.017 0-.03-.013-.039-.03l-.107-.254h-.134v.242c0 .02-.021.042-.043.042h-.081a.043.043 0 01-.043-.042zm.284.976c.353 0 .632-.28.632-.623a.626.626 0 00-.632-.624.629.629 0 00-.633.623c0 .344.28.624.633.624zm0-1.395a.78.78 0 01.783.772.78.78 0 01-.783.771.778.778 0 01-.784-.772c0-.424.349-.771.784-.771z"/></svg>